<?xml version="1.0" standalone="no"?>
<!DOCTYPE svg PUBLIC "-//W3C//DTD SVG 20010904//EN"
 "http://www.w3.org/TR/2001/REC-SVG-20010904/DTD/svg10.dtd">
<svg version="1.0" xmlns="http://www.w3.org/2000/svg"
 width="512.000000pt" height="512.000000pt" viewBox="0 0 512.000000 512.000000"
 preserveAspectRatio="xMidYMid meet">
<metadata>
Created by potrace 1.11, written by Peter Selinger 2001-2013
</metadata>
<g transform="translate(0.000000,512.000000) scale(0.100000,-0.100000)"
fill="#000000" stroke="none">
<path d="M2345 4385 c-231 -27 -428 -86 -630 -187 -191 -96 -325 -191 -462
-325 -293 -289 -469 -630 -535 -1038 -16 -102 -16 -427 0 -525 132 -792 725
-1394 1507 -1530 761 -132 1510 201 1915 850 140 223 219 456 255 742 19 153
19 240 0 398 -25 217 -65 360 -149 549 -204 453 -608 817 -1086 978 -136 46
-248 70 -410 89 -148 16 -256 16 -405 -1z m-190 -1105 c170 -54 336 -178 369
-275 l12 -34 45 53 c111 132 243 218 394 257 92 24 301 26 388 3 137 -35 271
-116 368 -222 68 -75 114 -152 152 -255 28 -77 30 -92 31 -232 0 -129 -3 -160
-22 -219 -74 -229 -251 -408 -482 -486 -91 -31 -306 -39 -408 -16 -169 38
-360 164 -412 271 l-22 45 -76 -81 c-124 -132 -243 -200 -412 -234 -99 -20
-249 -16 -345 10 -80 21 -210 85 -265 132 -64 53 -156 159 -191 220 -60 104
-81 186 -87 332 -3 107 -1 146 13 200 75 281 290 489 565 547 98 20 296 12
385 -16z"/>
<path d="M1774 3001 c-139 -51 -252 -176 -284 -313 -51 -224 66 -450 275 -530
50 -19 79 -23 175 -23 112 1 117 2 190 37 89 43 171 120 211 198 15 30 25 58
23 62 -3 4 -100 7 -217 7 -305 -1 -282 -3 -320 31 -50 43 -64 106 -38 165 35
79 37 79 361 85 l285 5 17 50 c23 71 23 76 -8 65 -34 -13 -90 -13 -117 2 -12
6 -46 33 -75 59 -29 26 -83 63 -120 81 -63 31 -73 33 -187 35 -96 2 -130 -1
-171 -16z"/>
<path d="M3044 3001 c-78 -22 -137 -57 -198 -118 -52 -51 -101 -136 -92 -159
4 -12 59 -14 313 -14 288 0 310 -1 340 -20 85 -51 85 -189 0 -240 -30 -19 -52
-20 -378 -20 -265 0 -349 -3 -356 -12 -6 -7 -15 -31 -20 -53 -6 -22 -14 -48
-18 -57 -7 -17 -5 -17 31 -2 64 27 111 13 191 -58 118 -105 236 -142 387 -120
227 33 386 214 386 442 0 124 -39 219 -128 312 -114 120 -293 166 -458 119z"/>
</g>
</svg>
